<svg xmlns="http://www.w3.org/2000/svg" xmlns:xlink="http://www.w3.org/1999/xlink" width="500" zoomAndPan="magnify" viewBox="0 0 375 374.999991" height="500" preserveAspectRatio="xMidYMid meet" version="1.0"><defs><g/><clipPath id="1a80ebbf42"><path d="M 49.050781 151.46875 L 143.550781 151.46875 L 143.550781 223.460938 L 49.050781 223.460938 Z M 49.050781 151.46875 " clip-rule="nonzero"/></clipPath><clipPath id="197410288f"><path d="M 56.371094 158.238281 L 100 158.238281 L 100 216.761719 L 56.371094 216.761719 Z M 56.371094 158.238281 " clip-rule="nonzero"/></clipPath><clipPath id="7d6946ce21"><path d="M 91.609375 166.03125 L 126.109375 166.03125 L 126.109375 208.78125 L 91.609375 208.78125 Z M 91.609375 166.03125 " clip-rule="nonzero"/></clipPath><clipPath id="7f70314acd"><path d="M 66.390625 166.03125 L 100.890625 166.03125 L 100.890625 208.78125 L 66.390625 208.78125 Z M 66.390625 166.03125 " clip-rule="nonzero"/></clipPath></defs><rect x="-37.5" width="450" fill="#ffffff" y="-37.499999" height="449.999989" fill-opacity="1"/><rect x="-37.5" width="450" fill="#ffffff" y="-37.499999" height="449.999989" fill-opacity="1"/><rect x="-37.5" width="450" fill="#ffffff" y="-37.499999" height="449.999989" fill-opacity="1"/><g fill="#000000" fill-opacity="1"><g transform="translate(153.003461, 196.769512)"><g><path d="M 9.128906 0.421875 C 14.015625 0.421875 16.90625 -1.882812 16.90625 -5.757812 C 16.90625 -9.015625 14.800781 -10.925781 10.027344 -11.992188 C 7.5 -12.554688 6.574219 -13.171875 6.574219 -14.183594 C 6.574219 -15.140625 7.414062 -15.730469 8.734375 -15.730469 C 10.308594 -15.730469 11.207031 -14.914062 11.207031 -13.425781 L 16.542969 -13.425781 C 16.542969 -17.46875 13.453125 -20.082031 8.621094 -20.082031 C 3.988281 -20.082031 1.125 -17.777344 1.125 -14.070312 C 1.125 -10.757812 3.285156 -8.707031 7.722656 -7.863281 C 10.109375 -7.386719 11.261719 -6.65625 11.261719 -5.53125 C 11.261719 -4.550781 10.421875 -3.988281 9.042969 -3.988281 C 7.414062 -3.988281 6.460938 -4.859375 6.460938 -6.375 L 0.984375 -6.375 C 0.984375 -2.132812 4.015625 0.421875 9.128906 0.421875 Z M 9.128906 0.421875 "/></g></g></g><g fill="#000000" fill-opacity="1"><g transform="translate(170.949788, 196.769512)"><g><path d="M 11.261719 0.421875 C 16.683594 0.421875 20.785156 -2.863281 21.625 -7.863281 L 15.867188 -7.863281 C 15.167969 -6.011719 13.507812 -4.832031 11.375 -4.832031 C 8.621094 -4.832031 6.710938 -6.882812 6.710938 -9.832031 C 6.710938 -12.808594 8.652344 -14.828125 11.429688 -14.828125 C 13.480469 -14.828125 15.195312 -13.679688 15.785156 -11.910156 L 21.515625 -11.910156 C 20.503906 -16.878906 16.457031 -20.082031 11.207031 -20.082031 C 5.140625 -20.082031 0.953125 -15.898438 0.953125 -9.832031 C 0.953125 -3.761719 5.140625 0.421875 11.261719 0.421875 Z M 11.261719 0.421875 "/></g></g></g><g fill="#000000" fill-opacity="1"><g transform="translate(193.473965, 196.769512)"><g><path d="M 13.820312 0 L 19.492188 0 L 19.492188 -19.660156 L 13.820312 -19.660156 L 13.820312 -12.609375 L 7.75 -12.609375 L 7.75 -19.660156 L 2.078125 -19.660156 L 2.078125 0 L 7.75 0 L 7.75 -7.386719 L 13.820312 -7.386719 Z M 13.820312 0 "/></g></g></g><g fill="#000000" fill-opacity="1"><g transform="translate(215.043257, 196.769512)"><g><path d="M 2.078125 0 L 15.867188 0 L 15.867188 -4.632812 L 7.695312 -4.632812 L 7.695312 -7.667969 L 14.800781 -7.667969 L 14.800781 -12.21875 L 7.695312 -12.21875 L 7.695312 -15.082031 L 15.558594 -15.082031 L 15.558594 -19.660156 L 2.078125 -19.660156 Z M 2.078125 0 "/></g></g></g><g fill="#000000" fill-opacity="1"><g transform="translate(232.175111, 196.769512)"><g><path d="M 2.078125 0 L 10.421875 0 C 16.769531 0 20.980469 -3.902344 20.980469 -9.832031 C 20.980469 -15.730469 16.769531 -19.660156 10.421875 -19.660156 L 2.078125 -19.660156 Z M 7.75 -5.082031 L 7.75 -14.578125 L 10.25 -14.578125 C 13.257812 -14.578125 15.195312 -12.722656 15.195312 -9.832031 C 15.195312 -6.9375 13.257812 -5.082031 10.25 -5.082031 Z M 7.75 -5.082031 "/></g></g></g><g fill="#000000" fill-opacity="1"><g transform="translate(254.109502, 196.769512)"><g><path d="M 2.078125 0 L 7.75 0 L 7.75 -19.660156 L 2.078125 -19.660156 Z M 2.078125 0 "/></g></g></g><g fill="#000000" fill-opacity="1"><g transform="translate(263.939263, 196.769512)"><g><path d="M 11.65625 0.421875 C 17.917969 0.421875 22.355469 -3.820312 22.355469 -9.832031 C 22.355469 -15.839844 17.917969 -20.082031 11.65625 -20.082031 C 5.394531 -20.082031 0.953125 -15.839844 0.953125 -9.832031 C 0.953125 -3.820312 5.394531 0.421875 11.65625 0.421875 Z M 6.710938 -9.832031 C 6.710938 -12.78125 8.761719 -14.828125 11.65625 -14.828125 C 14.578125 -14.828125 16.597656 -12.78125 16.597656 -9.832031 C 16.597656 -6.882812 14.578125 -4.832031 11.65625 -4.832031 C 8.761719 -4.832031 6.710938 -6.882812 6.710938 -9.832031 Z M 6.710938 -9.832031 "/></g></g></g><g clip-path="url(#1a80ebbf42)"><path stroke-linecap="butt" transform="matrix(0.749442, 0, 0, 0.749268, 49.050467, 151.467031)" fill="none" stroke-linejoin="miter" d="M 0.000419473 0.00229443 L 126.094185 0.00229443 L 126.094185 96.085621 L 0.000419473 96.085621 L 0.000419473 0.00229443 " stroke="#000000" stroke-width="6" stroke-opacity="1" stroke-miterlimit="4"/></g><g clip-path="url(#197410288f)"><path fill="#000000" d="M 56.371094 158.238281 L 99.9375 158.238281 L 99.9375 217.363281 L 56.371094 217.363281 Z M 56.371094 158.238281 " fill-opacity="1" fill-rule="nonzero"/></g><g clip-path="url(#7d6946ce21)"><path fill="#040606" d="M 116.769531 200.1875 C 116.070312 200.1875 115.5 200.746094 115.5 201.4375 C 115.5 201.671875 115.570312 201.902344 115.695312 202.101562 L 117.242188 204.535156 C 117.425781 204.820312 117.488281 205.160156 117.421875 205.492188 C 117.054688 207.339844 115.414062 208.675781 113.503906 208.675781 L 112.8125 208.675781 C 110.898438 208.675781 109.257812 207.339844 108.890625 205.492188 C 108.824219 205.160156 108.890625 204.820312 109.074219 204.535156 L 110.621094 202.101562 C 110.992188 201.515625 110.8125 200.746094 110.21875 200.378906 C 110.019531 200.253906 109.785156 200.1875 109.542969 200.1875 L 100.21875 200.1875 L 100.21875 190.96875 C 100.21875 190.277344 99.652344 189.71875 98.949219 189.71875 C 98.710938 189.71875 98.480469 189.785156 98.277344 189.910156 L 95.8125 191.4375 C 95.519531 191.617188 95.175781 191.675781 94.839844 191.613281 C 92.960938 191.25 91.609375 189.628906 91.609375 187.746094 L 91.609375 187.066406 C 91.609375 185.179688 92.960938 183.5625 94.839844 183.199219 C 95.175781 183.132812 95.519531 183.195312 95.8125 183.375 L 98.277344 184.902344 C 98.871094 185.269531 99.652344 185.089844 100.027344 184.507812 C 100.152344 184.308594 100.21875 184.078125 100.21875 183.84375 L 100.21875 174.625 L 109.542969 174.625 C 110.246094 174.625 110.816406 174.066406 110.816406 173.375 C 110.816406 173.140625 110.746094 172.910156 110.621094 172.710938 L 109.074219 170.277344 C 108.890625 169.992188 108.824219 169.652344 108.890625 169.320312 C 109.257812 167.46875 110.898438 166.132812 112.8125 166.132812 L 113.503906 166.132812 C 115.414062 166.132812 117.054688 167.46875 117.421875 169.320312 C 117.488281 169.652344 117.425781 169.992188 117.242188 170.277344 L 115.695312 172.710938 C 115.324219 173.296875 115.5 174.066406 116.09375 174.4375 C 116.296875 174.5625 116.53125 174.625 116.769531 174.625 L 126.09375 174.625 L 126.09375 183.257812 C 126.09375 183.953125 125.523438 184.515625 124.824219 184.515625 C 124.582031 184.515625 124.347656 184.453125 124.144531 184.324219 L 121.949219 182.964844 C 121.554688 182.722656 121.078125 182.636719 120.625 182.722656 C 118.519531 183.128906 117 184.949219 117 187.066406 L 117 187.746094 C 117 189.859375 118.519531 191.679688 120.625 192.089844 C 121.078125 192.175781 121.554688 192.089844 121.949219 191.847656 L 124.144531 190.488281 C 124.738281 190.117188 125.527344 190.296875 125.898438 190.882812 C 126.03125 191.085938 126.09375 191.316406 126.09375 191.554688 L 126.09375 200.1875 L 116.769531 200.1875 " fill-opacity="1" fill-rule="nonzero"/></g><g clip-path="url(#7f70314acd)"><path fill="#ffffff" d="M 91.546875 200.1875 C 90.851562 200.1875 90.28125 200.746094 90.28125 201.4375 C 90.28125 201.671875 90.347656 201.902344 90.476562 202.101562 L 92.023438 204.535156 C 92.207031 204.820312 92.265625 205.160156 92.203125 205.492188 C 91.835938 207.339844 90.191406 208.675781 88.28125 208.675781 L 87.59375 208.675781 C 85.679688 208.675781 84.035156 207.339844 83.667969 205.492188 C 83.601562 205.160156 83.667969 204.820312 83.851562 204.535156 L 85.398438 202.101562 C 85.769531 201.515625 85.589844 200.746094 84.996094 200.378906 C 84.796875 200.253906 84.5625 200.1875 84.324219 200.1875 L 74.996094 200.1875 L 74.996094 190.96875 C 74.996094 190.277344 74.429688 189.71875 73.730469 189.71875 C 73.492188 189.71875 73.257812 189.785156 73.054688 189.910156 L 70.589844 191.4375 C 70.296875 191.617188 69.953125 191.675781 69.617188 191.613281 C 67.742188 191.25 66.390625 189.628906 66.390625 187.746094 L 66.390625 187.066406 C 66.390625 185.179688 67.742188 183.5625 69.617188 183.199219 C 69.953125 183.132812 70.296875 183.195312 70.589844 183.375 L 73.054688 184.902344 C 73.648438 185.269531 74.429688 185.089844 74.804688 184.507812 C 74.929688 184.308594 74.996094 184.078125 74.996094 183.84375 L 74.996094 174.625 L 84.324219 174.625 C 85.023438 174.625 85.59375 174.066406 85.59375 173.375 C 85.59375 173.140625 85.523438 172.910156 85.398438 172.710938 L 83.851562 170.277344 C 83.667969 169.992188 83.601562 169.652344 83.667969 169.320312 C 84.035156 167.46875 85.679688 166.132812 87.59375 166.132812 L 88.28125 166.132812 C 90.191406 166.132812 91.835938 167.46875 92.203125 169.320312 C 92.265625 169.652344 92.207031 169.992188 92.023438 170.277344 L 90.476562 172.710938 C 90.105469 173.296875 90.28125 174.066406 90.875 174.4375 C 91.078125 174.5625 91.308594 174.625 91.546875 174.625 L 100.875 174.625 L 100.875 183.257812 C 100.875 183.953125 100.304688 184.515625 99.601562 184.515625 C 99.363281 184.515625 99.128906 184.453125 98.925781 184.324219 L 96.726562 182.964844 C 96.332031 182.722656 95.859375 182.636719 95.402344 182.722656 C 93.296875 183.128906 91.777344 184.949219 91.777344 187.066406 L 91.777344 187.746094 C 91.777344 189.859375 93.296875 191.679688 95.402344 192.089844 C 95.859375 192.175781 96.332031 192.089844 96.726562 191.847656 L 98.925781 190.488281 C 99.519531 190.117188 100.308594 190.296875 100.679688 190.882812 C 100.808594 191.085938 100.875 191.316406 100.875 191.554688 L 100.875 200.1875 L 91.546875 200.1875 " fill-opacity="1" fill-rule="nonzero"/></g></svg>