<svg xmlns="http://www.w3.org/2000/svg" xmlns:xlink="http://www.w3.org/1999/xlink" width="500" zoomAndPan="magnify" viewBox="0 0 375 374.999991" height="500" preserveAspectRatio="xMidYMid meet" version="1.0"><defs><clipPath id="a23d6d1a4b"><path d="M 42.074219 71.621094 L 346.570312 71.621094 L 346.570312 303.371094 L 42.074219 303.371094 Z M 42.074219 71.621094 " clip-rule="nonzero"/></clipPath><clipPath id="bb13bf57ea"><path d="M 65.609375 93.398438 L 206 93.398438 L 206 281.601562 L 65.609375 281.601562 Z M 65.609375 93.398438 " clip-rule="nonzero"/></clipPath><clipPath id="32577cfdef"><path d="M 178.9375 118.460938 L 289.1875 118.460938 L 289.1875 256.460938 L 178.9375 256.460938 Z M 178.9375 118.460938 " clip-rule="nonzero"/></clipPath><clipPath id="8f7ad2fed2"><path d="M 97.832031 118.460938 L 208.082031 118.460938 L 208.082031 256.460938 L 97.832031 256.460938 Z M 97.832031 118.460938 " clip-rule="nonzero"/></clipPath></defs><rect x="-37.5" width="450" fill="#ffffff" y="-37.499999" height="449.999989" fill-opacity="1"/><rect x="-37.5" width="450" fill="#ffffff" y="-37.499999" height="449.999989" fill-opacity="1"/><g clip-path="url(#a23d6d1a4b)"><path stroke-linecap="butt" transform="matrix(0.750925, 0, 0, 0.75, 42.075371, 71.619545)" fill="none" stroke-linejoin="miter" d="M -0.00153489 0.00206514 L 405.493286 0.00206514 L 405.493286 309.002085 L -0.00153489 309.002085 L -0.00153489 0.00206514 " stroke="#191919" stroke-width="20" stroke-opacity="1" stroke-miterlimit="4"/></g><g clip-path="url(#bb13bf57ea)"><path fill="#191919" d="M 65.609375 93.398438 L 205.710938 93.398438 L 205.710938 283.535156 L 65.609375 283.535156 Z M 65.609375 93.398438 " fill-opacity="1" fill-rule="nonzero"/></g><g clip-path="url(#32577cfdef)"><path fill="#191919" d="M 259.332031 228.722656 C 257.105469 228.722656 255.28125 230.527344 255.28125 232.761719 C 255.28125 233.515625 255.503906 234.261719 255.90625 234.90625 L 260.847656 242.757812 C 261.4375 243.683594 261.632812 244.78125 261.421875 245.855469 C 260.25 251.816406 255 256.136719 248.894531 256.136719 L 246.691406 256.136719 C 240.574219 256.136719 235.328125 251.816406 234.152344 245.855469 C 233.945312 244.78125 234.152344 243.683594 234.738281 242.757812 L 239.683594 234.90625 C 240.871094 233.015625 240.292969 230.527344 238.398438 229.347656 C 237.761719 228.945312 237.015625 228.722656 236.246094 228.722656 L 206.441406 228.722656 L 206.441406 198.960938 C 206.441406 196.726562 204.628906 194.921875 202.390625 194.921875 C 201.632812 194.921875 200.886719 195.144531 200.238281 195.546875 L 192.359375 200.472656 C 191.429688 201.058594 190.328125 201.253906 189.25 201.042969 C 183.253906 199.875 178.9375 194.644531 178.9375 188.558594 L 178.9375 186.363281 C 178.9375 180.28125 183.253906 175.046875 189.25 173.878906 C 190.328125 173.671875 191.429688 173.867188 192.359375 174.449219 L 200.238281 179.378906 C 202.132812 180.558594 204.628906 179.988281 205.828125 178.109375 C 206.234375 177.460938 206.441406 176.71875 206.441406 175.960938 L 206.441406 146.199219 L 236.246094 146.199219 C 238.484375 146.199219 240.304688 144.394531 240.304688 142.164062 C 240.304688 141.40625 240.085938 140.664062 239.683594 140.015625 L 234.738281 132.164062 C 234.152344 131.238281 233.945312 130.140625 234.152344 129.066406 C 235.328125 123.09375 240.574219 118.789062 246.691406 118.789062 L 248.894531 118.789062 C 255 118.789062 260.25 123.09375 261.421875 129.066406 C 261.632812 130.140625 261.4375 131.238281 260.847656 132.164062 L 255.90625 140.015625 C 254.71875 141.90625 255.28125 144.394531 257.179688 145.589844 C 257.828125 145.992188 258.574219 146.199219 259.332031 146.199219 L 289.136719 146.199219 L 289.136719 174.074219 C 289.136719 176.316406 287.3125 178.132812 285.074219 178.132812 C 284.304688 178.132812 283.554688 177.925781 282.90625 177.511719 L 275.886719 173.121094 C 274.625 172.339844 273.109375 172.0625 271.652344 172.339844 C 264.921875 173.660156 260.066406 179.535156 260.066406 186.363281 L 260.066406 188.558594 C 260.066406 195.386719 264.921875 201.265625 271.652344 202.582031 C 273.109375 202.863281 274.625 202.582031 275.886719 201.800781 L 282.90625 197.410156 C 284.804688 196.214844 287.324219 196.789062 288.511719 198.691406 C 288.925781 199.335938 289.136719 200.082031 289.136719 200.851562 L 289.136719 228.722656 L 259.332031 228.722656 " fill-opacity="1" fill-rule="nonzero"/></g><g clip-path="url(#8f7ad2fed2)"><path fill="#ffffff" d="M 178.226562 228.722656 C 176 228.722656 174.175781 230.527344 174.175781 232.761719 C 174.175781 233.515625 174.398438 234.261719 174.800781 234.90625 L 179.746094 242.757812 C 180.332031 243.683594 180.527344 244.78125 180.320312 245.855469 C 179.144531 251.816406 173.894531 256.136719 167.792969 256.136719 L 165.589844 256.136719 C 159.472656 256.136719 154.222656 251.816406 153.046875 245.855469 C 152.839844 244.78125 153.046875 243.683594 153.636719 242.757812 L 158.578125 234.90625 C 159.765625 233.015625 159.191406 230.527344 157.292969 229.347656 C 156.65625 228.945312 155.910156 228.722656 155.140625 228.722656 L 125.335938 228.722656 L 125.335938 198.960938 C 125.335938 196.726562 123.527344 194.921875 121.285156 194.921875 C 120.527344 194.921875 119.78125 195.144531 119.132812 195.546875 L 111.253906 200.472656 C 110.324219 201.058594 109.222656 201.253906 108.148438 201.042969 C 102.152344 199.875 97.832031 194.644531 97.832031 188.558594 L 97.832031 186.363281 C 97.832031 180.28125 102.152344 175.046875 108.148438 173.878906 C 109.222656 173.671875 110.324219 173.867188 111.253906 174.449219 L 119.132812 179.378906 C 121.03125 180.558594 123.527344 179.988281 124.726562 178.109375 C 125.128906 177.460938 125.335938 176.71875 125.335938 175.960938 L 125.335938 146.199219 L 155.140625 146.199219 C 157.378906 146.199219 159.203125 144.394531 159.203125 142.164062 C 159.203125 141.40625 158.980469 140.664062 158.578125 140.015625 L 153.636719 132.164062 C 153.046875 131.238281 152.839844 130.140625 153.046875 129.066406 C 154.222656 123.09375 159.472656 118.789062 165.589844 118.789062 L 167.792969 118.789062 C 173.894531 118.789062 179.144531 123.09375 180.320312 129.066406 C 180.527344 130.140625 180.332031 131.238281 179.746094 132.164062 L 174.800781 140.015625 C 173.613281 141.90625 174.175781 144.394531 176.074219 145.589844 C 176.722656 145.992188 177.46875 146.199219 178.226562 146.199219 L 208.03125 146.199219 L 208.03125 174.074219 C 208.03125 176.316406 206.207031 178.132812 203.96875 178.132812 C 203.199219 178.132812 202.453125 177.925781 201.804688 177.511719 L 194.78125 173.121094 C 193.519531 172.339844 192.003906 172.0625 190.546875 172.339844 C 183.820312 173.660156 178.960938 179.535156 178.960938 186.363281 L 178.960938 188.558594 C 178.960938 195.386719 183.820312 201.265625 190.546875 202.582031 C 192.003906 202.863281 193.519531 202.582031 194.78125 201.800781 L 201.804688 197.410156 C 203.699219 196.214844 206.21875 196.789062 207.40625 198.691406 C 207.824219 199.335938 208.03125 200.082031 208.03125 200.851562 L 208.03125 228.722656 L 178.226562 228.722656 " fill-opacity="1" fill-rule="nonzero"/></g></svg>